<?xml version="1.0" encoding="UTF-8"?>
<svg version="1.1" xmlns="http://www.w3.org/2000/svg" width="101" height="100">
<path d="M0 0 C2.53541298 0.09086451 5.03554784 0.2370945 7.5625 0.4375 C8.62887695 0.51581055 8.62887695 0.51581055 9.71679688 0.59570312 C11.47821999 0.72574107 13.23916173 0.86226897 15 1 C15.02689216 2.47906892 15.04634621 3.95827483 15.0625 5.4375 C15.07410156 6.26121094 15.08570312 7.08492187 15.09765625 7.93359375 C15 10 15 10 14 11 C11.66839945 11.09909302 9.33370058 11.12970504 7 11.125 C5.72125 11.12757812 4.4425 11.13015625 3.125 11.1328125 C0 11 0 11 -1 10 C-1.0979057 8.50261876 -1.12974864 7.00057108 -1.125 5.5 C-1.12757812 4.6853125 -1.13015625 3.870625 -1.1328125 3.03125 C-1 1 -1 1 0 0 Z " fill="#FFBA32" transform="translate(65,44)"/>
<path d="M0 0 C2.25 2.5 2.25 2.5 4 5 C2.55575365 8.23861303 0.74227753 10.61969163 -1.625 13.25 C-2.25664063 13.95640625 -2.88828125 14.6628125 -3.5390625 15.390625 C-4.02117187 15.92171875 -4.50328125 16.4528125 -5 17 C-8.32759923 15.44805246 -10.48580485 13.69378051 -13 11 C-11.61369489 7.89797074 -9.99905084 5.67588601 -7.625 3.25 C-7.03976563 2.63640625 -6.45453125 2.0228125 -5.8515625 1.390625 C-4 0 -4 0 0 0 Z " fill="#FFD232" transform="translate(70,27)"/>
<path d="M0 0 C2.68109153 1.13577808 4.14545528 2.51479735 5.91796875 4.8125 C5.74457947 7.77869526 4.93251877 8.79742739 2.8515625 10.953125 C1.61599609 11.99726562 1.61599609 11.99726562 0.35546875 13.0625 C-0.47082031 13.76890625 -1.29710937 14.4753125 -2.1484375 15.203125 C-2.78652344 15.73421875 -3.42460938 16.2653125 -4.08203125 16.8125 C-7.77005169 15.58315985 -8.80560098 13.87390622 -11.08203125 10.8125 C-9.69158135 7.70807969 -8.06631527 5.4468557 -5.70703125 3 C-5.12179688 2.37480469 -4.5365625 1.74960937 -3.93359375 1.10546875 C-2.08203125 -0.1875 -2.08203125 -0.1875 0 0 Z " fill="#FFB522" transform="translate(39.08203125,56.1875)"/>
<path d="M0 0 C0 3.3 0 6.6 0 10 C-4.95 10 -9.9 10 -15 10 C-16.49106457 7.01787087 -16.11941467 4.28390342 -16 1 C-14.21010608 -0.78989392 -11.55229071 -0.42127056 -9.125 -0.625 C-7.52011719 -0.76808594 -7.52011719 -0.76808594 -5.8828125 -0.9140625 C-3 -1 -3 -1 0 0 Z " fill="#FFD231" transform="translate(38,45)"/>
<path d="M0 0 C3.46679688 0.04882812 3.46679688 0.04882812 6.93359375 0.09765625 C6.93359375 5.37765625 6.93359375 10.65765625 6.93359375 16.09765625 C3.63359375 16.09765625 0.33359375 16.09765625 -3.06640625 16.09765625 C-3.0932572 13.61841824 -3.11317172 11.13946785 -3.12890625 8.66015625 C-3.14147461 7.59958008 -3.14147461 7.59958008 -3.15429688 6.51757812 C-3.16294213 4.71072066 -3.11860636 2.90378022 -3.06640625 1.09765625 C-2.06640625 0.09765625 -2.06640625 0.09765625 0 0 Z " fill="#FFD130" transform="translate(49.06640625,20.90234375)"/>
<path d="M0 0 C3.46679688 0.04882812 3.46679688 0.04882812 6.93359375 0.09765625 C6.93359375 5.37765625 6.93359375 10.65765625 6.93359375 16.09765625 C-0 16.1953125 -0 16.1953125 -2.06640625 16.09765625 C-3.06640625 15.09765625 -3.06640625 15.09765625 -3.19921875 11.97265625 C-3.19664063 10.69390625 -3.1940625 9.41515625 -3.19140625 8.09765625 C-3.19398437 6.81890625 -3.1965625 5.54015625 -3.19921875 4.22265625 C-3.02583327 0.14299779 -3.02583327 0.14299779 0 0 Z " fill="#FFD12F" transform="translate(49.06640625,61.90234375)"/>
<path d="M0 0 C3.7501157 0.27632432 5.7118731 2.24990786 8.3125 4.8125 C9.38951172 5.84310547 9.38951172 5.84310547 10.48828125 6.89453125 C12 9 12 9 11.859375 11.12109375 C10.71092685 13.63201903 9.03248215 15.16420967 7 17 C3.54798361 15.52278578 1.35038064 13.56205999 -1.25 10.875 C-1.95640625 10.15054688 -2.6628125 9.42609375 -3.390625 8.6796875 C-4.18726563 7.84824219 -4.18726563 7.84824219 -5 7 C-3.47793991 4.37098712 -2.15634036 2.15634036 0 0 Z " fill="#FFD12F" transform="translate(62,56)"/>
<path d="M0 0 C2.83825537 1.08611938 4.32615877 2.69832608 6.4140625 4.890625 C7.12046875 5.62410156 7.826875 6.35757813 8.5546875 7.11328125 C9.08578125 7.67917969 9.616875 8.24507812 10.1640625 8.828125 C8.51213638 13.03302786 7.15177581 13.63795435 3.1640625 16.828125 C-0.1359375 13.528125 -3.4359375 10.228125 -6.8359375 6.828125 C-3.26886433 -0.30602134 -3.26886433 -0.30602134 0 0 Z " fill="#FFB728" transform="translate(34.8359375,27.171875)"/>
<path d="M0 0 C1.34063549 2.48017566 2.05143337 4.22556036 1.86328125 7.05859375 C1 9 1 9 -1.28515625 10.046875 C-2.20167969 10.27890625 -3.11820313 10.5109375 -4.0625 10.75 C-5.44115234 11.11351563 -5.44115234 11.11351563 -6.84765625 11.484375 C-7.55792969 11.65453125 -8.26820312 11.8246875 -9 12 C-12 6.375 -12 6.375 -12 3 C-10.5682384 2.30062798 -9.12932968 1.61587282 -7.6875 0.9375 C-6.48673828 0.36322266 -6.48673828 0.36322266 -5.26171875 -0.22265625 C-3 -1 -3 -1 0 0 Z " fill="#FFBD3B" transform="translate(25,57)"/>
<path d="M0 0 C3.57142857 7.28571429 3.57142857 7.28571429 2 12 C-0.31 12.66 -2.62 13.32 -5 14 C-5.67667998 12.75539217 -6.34094719 11.50403104 -7 10.25 C-7.37125 9.55390625 -7.7425 8.8578125 -8.125 8.140625 C-9 6 -9 6 -9 2 C-5.62902617 0.50178941 -3.79557881 0 0 0 Z " fill="#FFBC38" transform="translate(67,74)"/>
<path d="M0 0 C4.12751449 0.60698743 7.3321148 2.03810791 11 4 C10.5020163 7.73487777 10.12508244 9.81237635 8 13 C6.5410574 12.52269162 5.08286504 12.04308958 3.625 11.5625 C2.81289062 11.29566406 2.00078125 11.02882813 1.1640625 10.75390625 C-1 10 -1 10 -3 9 C-2.01 6.03 -1.02 3.06 0 0 Z " fill="#FFD338" transform="translate(78,56)"/>
<path d="M0 0 C3.9492568 0.55105909 7.34920174 1.38935371 11 3 C10.5020163 6.73487777 10.12508244 8.81237635 8 12 C3.87248551 11.39301257 0.6678852 9.96189209 -3 8 C-2.45276317 4.62537285 -1.9451 2.91765 0 0 Z " fill="#FFD338" transform="translate(16,31)"/>
<path d="M0 0 C4.46840411 0.49648935 5.68987756 0.68987756 9 4 C7.35 7.3 5.7 10.6 4 14 C-1.75 12.125 -1.75 12.125 -4 11 C-3.39301257 6.87248551 -1.96189209 3.6678852 0 0 Z " fill="#FFD336" transform="translate(36,74)"/>
<path d="M0 0 C1.32 3.3 2.64 6.6 4 10 C0.37542083 12.71843438 -0.80884715 13.41789544 -5 14 C-5.69937202 12.5682384 -6.38412718 11.12932968 -7.0625 9.6875 C-7.44535156 8.88699219 -7.82820313 8.08648437 -8.22265625 7.26171875 C-9 5 -9 5 -8 2 C-5.01540871 0.04457812 -3.73585209 0 0 0 Z " fill="#FFBB36" transform="translate(41,12)"/>
<path d="M0 0 C5.75 0.875 5.75 0.875 8 2 C7.5317879 6.77576339 6.75668002 10.04476345 4 14 C1.69 13.34 -0.62 12.68 -3 12 C-3.94721072 9.39517051 -4.30222393 7.69325299 -3.17578125 5.109375 C-2.17063275 3.37417127 -1.0893855 1.68359577 0 0 Z " fill="#FFD336" transform="translate(62,12)"/>
<path d="M0 0 C1.15015519 2.43562275 1.98280339 4.41531519 2.0625 7.125 C0.2373998 10.34576506 -2.60873644 10.90789818 -6 12 C-8.4375 11.6875 -8.4375 11.6875 -10 11 C-10.66 8.69 -11.32 6.38 -12 4 C-10.75539217 3.32332002 -9.50403104 2.65905281 -8.25 2 C-7.55390625 1.62875 -6.8578125 1.2575 -6.140625 0.875 C-4 0 -4 0 0 0 Z " fill="#FFBB34" transform="translate(87,31)"/>
<path d="M0 0 C6.15234375 -0.09765625 6.15234375 -0.09765625 8 0 C9 1 9 1 9.1328125 2.8125 C9.13023438 3.534375 9.12765625 4.25625 9.125 5 C9.12757812 5.721875 9.13015625 6.44375 9.1328125 7.1875 C9 9 9 9 8 10 C5.32941149 10.14115161 2.67567762 10.04247107 0 10 C-1.125 2.25 -1.125 2.25 0 0 Z " fill="#FFC34B" transform="translate(47,88)"/>
<path d="M0 0 C2.84383123 1.2748209 5.13754018 2.45137078 7 5 C6.84261966 7.51808551 6.16227577 8.77590488 4.6875 10.8125 C3 12 3 12 1 11.875 C-1.33829125 10.85199758 -2.55893291 10.12367781 -4 8 C-3.84946418 4.98928361 -3.41319987 3.47931185 -1.4375 1.1875 C-0.963125 0.795625 -0.48875 0.40375 0 0 Z " fill="#FFD543" transform="translate(19,13)"/>
<path d="M0 0 C2.05078125 0.03255208 4.1015625 0.06510417 6.15234375 0.09765625 C7.51858049 2.83012973 7.28076975 5.07964527 7.15234375 8.09765625 C6.15234375 9.09765625 6.15234375 9.09765625 4.0859375 9.1953125 C3.26222656 9.18371094 2.43851563 9.17210937 1.58984375 9.16015625 C0.76355469 9.15113281 -0.06273437 9.14210938 -0.9140625 9.1328125 C-1.55214844 9.12121094 -2.19023438 9.10960937 -2.84765625 9.09765625 C-2.9453125 2.9453125 -2.9453125 2.9453125 -2.84765625 1.09765625 C-1.84765625 0.09765625 -1.84765625 0.09765625 0 0 Z " fill="#FFD541" transform="translate(5.84765625,44.90234375)"/>
<path d="M0 0 C2.88437779 1.29299694 4.87219421 2.65941363 7 5 C5.71700242 7.86207152 4.469364 10.0245088 2 12 C1.01 12 0.02 12 -1 12 C-3.1875 9.5 -3.1875 9.5 -5 7 C-3.70700306 4.11562221 -2.34058637 2.12780579 0 0 Z " fill="#FFD43E" transform="translate(81,13)"/>
<path d="M0 0 C0.99 0 1.98 0 3 0 C5.25 2.25 5.25 2.25 7 5 C6.92288772 7.62181736 6.21451897 8.70375952 4.6875 10.8125 C3 12 3 12 1 11.875 C-1.30365256 10.86715201 -2.54793194 10.06346514 -4 8 C-3.78507768 4.6687041 -2.23876938 2.41098241 0 0 Z " fill="#FFD43C" transform="translate(19,74)"/>
<path d="M0 0 C3.82946843 1.45255699 5.12050295 3.42895561 7 7 C5.35 8.65 3.7 10.3 2 12 C-0.88437779 10.70700306 -2.87219421 9.34058637 -5 7 C-3.70700306 4.11562221 -2.34058637 2.12780579 0 0 Z " fill="#FFB420" transform="translate(81,74)"/>
<path d="M0 0 C6.15234375 -0.09765625 6.15234375 -0.09765625 8 0 C9 1 9 1 9.09765625 2.84765625 C9.04882812 5.92382812 9.04882812 5.92382812 9 9 C6.03 9 3.06 9 0 9 C-0.95904856 5.16380575 -0.91892116 3.67568464 0 0 Z " fill="#FFBC3A" transform="translate(47,2)"/>
<path d="M0 0 C2.97 0 5.94 0 9 0 C9 2.97 9 5.94 9 9 C6.03 9 3.06 9 0 9 C0 6.03 0 3.06 0 0 Z " fill="#FFBB35" transform="translate(90,45)"/>
<path d="M0 0 C0.99 0.33 1.98 0.66 3 1 C2.3503125 1.61488281 1.700625 2.22976562 1.03125 2.86328125 C0.1959375 3.67152344 -0.639375 4.47976562 -1.5 5.3125 C-2.3353125 6.11300781 -3.170625 6.91351563 -4.03125 7.73828125 C-6.32828283 9.87737482 -6.32828283 9.87737482 -6 13 C-6.66 13 -7.32 13 -8 13 C-8.77734375 11.296875 -8.77734375 11.296875 -9 9 C-7.12890625 6.640625 -7.12890625 6.640625 -4.5625 4.25 C-3.71816406 3.45078125 -2.87382813 2.6515625 -2.00390625 1.828125 C-1.34261719 1.22484375 -0.68132813 0.6215625 0 0 Z " fill="#FFCA65" transform="translate(37,56)"/>
<path d="M0 0 C2.62187494 1.04874998 3.79371361 1.64931313 5.25 4.125 C5.4975 4.74375 5.745 5.3625 6 6 C4.35 5.01 2.7 4.02 1 3 C0.071875 3.99 0.071875 3.99 -0.875 5 C-3 7 -3 7 -5 7 C-3.70700306 4.11562221 -2.34058637 2.12780579 0 0 Z " fill="#FFCE6F" transform="translate(81,74)"/>
</svg>
