<svg width="161" height="100" viewBox="0 0 161 100" fill="none" xmlns="http://www.w3.org/2000/svg">
<g clip-path="url(#clip0_2_2)">
<path d="M78.4054 19.2621H82.1949C82.5769 19.2621 82.8857 18.9471 82.8776 18.5651L82.7394 11.6487C82.7313 11.2768 82.4286 10.9802 82.0567 10.9802H78.5436C78.1718 10.9802 77.869 11.2768 77.8609 11.6487L77.7228 18.5651C77.7146 18.9471 78.0235 19.2621 78.4054 19.2621Z" fill="white"/>
<path d="M81.8375 0H78.7612C78.3894 0 78.0846 0.298685 78.0786 0.668484L78.0136 3.95198C78.0054 4.33397 78.3143 4.64891 78.6962 4.64891H81.9026C82.2845 4.64891 82.5934 4.33397 82.5853 3.95198L82.5203 0.668484C82.5121 0.296653 82.2094 0 81.8375 0Z" fill="white"/>
<path d="M69.931 7.84307L71.7393 12.4656C71.8796 12.8211 72.2838 12.9939 72.6374 12.8476L75.8336 11.5248C76.1871 11.3785 76.3517 10.9701 76.1972 10.6206L74.206 6.07331C74.0577 5.73196 73.6635 5.57348 73.3181 5.71571L70.3048 6.96327C69.9614 7.1055 69.7948 7.49562 69.931 7.84307Z" fill="white"/>
<path d="M73.6067 22.8199L76.2867 20.1399C76.5569 19.8697 76.5528 19.4288 76.2765 19.1647L71.2883 14.3714C71.0201 14.1134 70.5954 14.1174 70.3312 14.3816L67.8463 16.8665C67.5842 17.1287 67.5781 17.5554 67.8361 17.8236L72.6294 22.8118C72.8935 23.0881 73.3344 23.0923 73.6046 22.822" fill="white"/>
<path d="M62.4124 6.77214L60.2383 8.94622C59.9761 9.20837 59.9701 9.63506 60.2281 9.90328L62.5038 12.2724C62.7679 12.5487 63.2088 12.5528 63.4791 12.2826L65.7467 10.015C66.0169 9.7448 66.0128 9.30381 65.7365 9.03971L63.3674 6.76402C63.0992 6.50597 62.6744 6.51004 62.4103 6.77418" fill="white"/>
<path d="M59.5376 20.7393L64.0849 22.7306C64.4344 22.8851 64.8428 22.7204 64.989 22.3669L66.3118 19.1708C66.4581 18.8172 66.2854 18.4129 65.9298 18.2727L61.3073 16.4643C60.9598 16.3282 60.5697 16.4948 60.4275 16.8382L59.1799 19.8515C59.0377 20.1949 59.1962 20.589 59.5376 20.7393Z" fill="white"/>
<path d="M72.7285 28.7285V24.9391C72.7285 24.5571 72.4136 24.2483 72.0315 24.2564L65.1151 24.3945C64.7432 24.4026 64.4466 24.7054 64.4466 25.0772V28.5903C64.4466 28.9622 64.7432 29.2649 65.1151 29.2731L72.0315 29.4112C72.4136 29.4193 72.7285 29.1105 72.7285 28.7285Z" fill="white"/>
<path d="M53.4663 25.2968V28.373C53.4663 28.7448 53.7651 29.0496 54.1348 29.0557L57.4183 29.1207C57.8004 29.1288 58.1153 28.82 58.1153 28.438V25.2318C58.1153 24.8497 57.8004 24.5409 57.4183 24.549L54.1348 24.614C53.763 24.6222 53.4663 24.9249 53.4663 25.2968Z" fill="white"/>
<path d="M61.3095 37.2055L65.932 35.3971C66.2876 35.2569 66.4603 34.8525 66.314 34.499L64.9912 31.3029C64.8449 30.9493 64.4365 30.7848 64.087 30.9391L59.5397 32.9304C59.1984 33.0787 59.0399 33.4729 59.1821 33.8183L60.4297 36.8315C60.5719 37.1749 60.9621 37.3415 61.3095 37.2055Z" fill="white"/>
<path d="M76.2862 33.5278L73.6062 30.8478C73.336 30.5775 72.8951 30.5816 72.631 30.8579L67.8378 35.8462C67.5797 36.1144 67.5838 36.539 67.8479 36.8031L70.3329 39.2881C70.595 39.5503 71.0217 39.5563 71.2899 39.2983L76.2781 34.5051C76.5545 34.241 76.5586 33.8001 76.2883 33.5298" fill="white"/>
<path d="M60.2392 44.7214L62.4133 46.8954C62.6754 47.1576 63.102 47.1636 63.3703 46.9056L65.7395 44.63C66.0158 44.3658 66.0198 43.9249 65.7496 43.6546L63.482 41.387C63.2118 41.1168 62.7709 41.1209 62.5068 41.3972L60.2311 43.7664C59.973 44.0346 59.977 44.4593 60.2412 44.7234" fill="white"/>
<path d="M74.206 47.5964L76.1972 43.0491C76.3517 42.6996 76.1871 42.2911 75.8336 42.1449L72.6374 40.8221C72.2838 40.6758 71.8796 40.8485 71.7393 41.2041L69.931 45.8266C69.7948 46.1741 69.9614 46.5641 70.3048 46.7064L73.3181 47.954C73.6615 48.0962 74.0556 47.9377 74.206 47.5964Z" fill="white"/>
<path d="M82.1949 34.4055H78.4054C78.0235 34.4055 77.7146 34.7204 77.7228 35.1024L77.8609 42.0189C77.869 42.3907 78.1718 42.6874 78.5436 42.6874H82.0567C82.4286 42.6874 82.7313 42.3907 82.7394 42.0189L82.8776 35.1024C82.8857 34.7204 82.5769 34.4055 82.1949 34.4055Z" fill="white"/>
<path d="M78.763 53.6677H81.8393C82.2111 53.6677 82.5138 53.3691 82.522 52.9992L82.587 49.7158C82.5951 49.3338 82.2862 49.0188 81.9043 49.0188H78.698C78.316 49.0188 78.0071 49.3338 78.0153 49.7158L78.0804 52.9992C78.0885 53.3711 78.3912 53.6677 78.763 53.6677Z" fill="white"/>
<path d="M90.6723 45.8266L88.8639 41.2041C88.7237 40.8485 88.3194 40.6758 87.9659 40.8221L84.7697 42.1449C84.4161 42.2911 84.2516 42.6996 84.406 43.0491L86.3972 47.5964C86.5476 47.9377 86.9418 48.0962 87.2852 47.954L90.2982 46.7064C90.6419 46.5641 90.808 46.1741 90.6723 45.8266Z" fill="white"/>
<path d="M86.9943 30.8479L84.3142 33.5279C84.044 33.7981 84.048 34.239 84.3244 34.5031L89.3125 39.2963C89.5812 39.5544 90.0053 39.5503 90.2696 39.2862L92.7544 36.8012C93.0169 36.5391 93.0232 36.1124 92.7652 35.8442L87.9716 30.856C87.7074 30.5796 87.2665 30.5755 86.9962 30.8458" fill="white"/>
<path d="M98.1884 46.8955L100.362 44.7214C100.624 44.4593 100.629 44.0326 100.372 43.7644L98.0964 41.3952C97.8321 41.1189 97.3911 41.1149 97.1214 41.3851L94.8536 43.6526C94.583 43.9229 94.5875 44.3638 94.8634 44.628L97.233 46.9036C97.5009 47.1617 97.9259 47.1576 98.1902 46.8935" fill="white"/>
<path d="M101.063 32.9304L96.5161 30.9391C96.1661 30.7848 95.758 30.9493 95.6116 31.3029L94.2893 34.499C94.1428 34.8525 94.3152 35.2569 94.6714 35.3971L99.2937 37.2055C99.6393 37.3415 100.031 37.1749 100.173 36.8315L101.421 33.8183C101.563 33.4749 101.404 33.0807 101.063 32.9304Z" fill="white"/>
<path d="M87.8723 24.9391V28.7285C87.8723 29.1105 88.1872 29.4193 88.5693 29.4112L95.4875 29.2731C95.8598 29.2649 96.1562 28.9622 96.1562 28.5903V25.0772C96.1562 24.7054 95.8598 24.4026 95.4875 24.3945L88.5693 24.2564C88.1872 24.2483 87.8723 24.5571 87.8723 24.9391Z" fill="white"/>
<path d="M107.135 28.3709V25.2947C107.135 24.9228 106.838 24.62 106.464 24.6119L103.18 24.5469C102.798 24.5388 102.484 24.8476 102.484 25.2296V28.4359C102.484 28.8179 102.798 29.1267 103.18 29.1186L106.464 29.0536C106.836 29.0455 107.135 28.7427 107.135 28.3709Z" fill="white"/>
<path d="M99.2937 16.4643L94.6714 18.2727C94.3152 18.4129 94.1428 18.8172 94.2893 19.1708L95.6116 22.3669C95.758 22.7204 96.1661 22.8851 96.5161 22.7306L101.063 20.7393C101.404 20.591 101.563 20.1968 101.421 19.8515L100.173 16.8382C100.031 16.4948 99.6411 16.3282 99.2937 16.4643Z" fill="white"/>
<path d="M84.3144 20.1399L86.9945 22.8199C87.2647 23.0902 87.7057 23.086 87.9698 22.8097L92.7634 17.8215C93.0214 17.5533 93.0169 17.1286 92.7527 16.8644L90.2678 14.3795C90.0053 14.1174 89.5794 14.1113 89.3107 14.3693L84.3226 19.1625C84.0463 19.4267 84.0422 19.8676 84.3125 20.1378" fill="white"/>
<path d="M100.362 8.94629L98.1884 6.77221C97.9259 6.51009 97.4991 6.504 97.2312 6.76205L94.8625 9.03772C94.5857 9.30192 94.5812 9.74281 94.8518 10.0131L97.1196 12.2806C97.3902 12.5508 97.8304 12.5467 98.0946 12.2704L100.371 9.90129C100.629 9.63308 100.624 9.20843 100.361 8.94424" fill="white"/>
<path d="M86.3972 6.07124L84.406 10.6185C84.2516 10.9701 84.4161 11.3765 84.7697 11.5227L87.9659 12.8455C88.3194 12.9917 88.7237 12.8191 88.8639 12.4635L90.6723 7.841C90.808 7.49354 90.6419 7.10343 90.2964 6.96119L87.2831 5.71363C86.9397 5.5714 86.5456 5.72988 86.3953 6.07124" fill="white"/>
<path d="M146.926 74.1103V67.4702C146.926 66.8342 147.093 66.3933 147.424 66.1495C147.755 65.9057 148.346 65.7837 149.196 65.7837C150.587 65.7837 151.725 66.1779 152.605 66.9663C153.485 67.7547 153.926 68.8966 153.926 70.39C153.926 71.8834 153.461 72.8079 152.528 73.3301C151.597 73.8523 150.025 74.1124 147.81 74.1124H146.924L146.926 74.1103ZM154.895 77.6519C153.649 76.1767 152.704 75.2217 152.059 74.7869C153.396 74.6305 154.56 74.1144 155.551 73.2367C156.543 72.3609 157.038 71.1661 157.038 69.6525C157.038 67.9375 156.395 66.6351 155.108 65.7451C153.822 64.8551 152.121 64.4102 150.011 64.4102C149.411 64.4102 148.354 64.4284 146.843 64.465C145.329 64.5016 144.319 64.5016 143.813 64.465C143.923 66.6229 143.979 68.5775 143.979 70.331V78.4382C143.979 80.1999 143.925 82.1545 143.813 84.3042H147.119C146.989 80.5229 146.926 78.5683 146.926 78.4382V75.3254C148.096 75.3254 148.976 75.4656 149.562 75.748C150.146 76.0304 150.874 76.7192 151.739 77.8165L156.901 84.3042H160.663C159.999 83.6398 159.026 82.5425 157.744 81.0106L154.893 77.6499L154.895 77.6519ZM136.204 82.7153C137.646 81.3499 138.37 79.4135 138.37 76.9042V73.3342C138.38 70.2356 138.439 67.2792 138.551 64.4671H136.447C136.557 67.2812 136.614 70.2356 136.614 73.3342V77.0566C136.614 78.9848 136.076 80.4619 135.003 81.49C133.929 82.5182 132.543 83.0323 130.846 83.0323C129.149 83.0323 127.837 82.5223 126.827 81.5043C125.817 80.4843 125.311 79.0031 125.311 77.0566V70.3331C125.319 68.9311 125.388 66.9765 125.518 64.4671H122.06C122.19 66.9765 122.253 68.9311 122.253 70.3331V76.9042C122.253 78.2878 122.499 79.5029 122.993 80.5493C123.487 81.5958 124.143 82.4125 124.963 82.9977C125.785 83.5829 126.666 84.0238 127.607 84.3184C128.548 84.6131 129.539 84.7614 130.581 84.7614C132.887 84.7614 134.762 84.0787 136.206 82.7133M116.525 75.3802V73.3321C116.525 70.2335 116.58 67.2772 116.692 64.465H114.617C114.737 67.2791 114.798 70.2335 114.798 73.3321V79.379L101.199 64.7272C101.051 64.5525 100.825 64.465 100.521 64.465H99.7178C99.533 64.465 99.4491 64.589 99.4678 64.8389C99.6705 66.692 99.7723 69.5467 99.7723 73.4033V75.4371C99.7723 78.5358 99.7178 81.4921 99.6062 84.3062H101.68C101.561 81.4921 101.5 78.5377 101.5 75.4371V69.3497L115.128 84.0563C115.273 84.2229 115.501 84.3062 115.806 84.3062H116.58C116.765 84.3062 116.848 84.1823 116.83 83.9324C116.619 82.0793 116.517 79.2286 116.525 75.3823M84.0356 75.8212C83.7776 75.8212 83.5764 75.7907 83.4342 75.7317C83.292 75.6709 83.2575 75.5591 83.3306 75.3925L86.3195 68.1875L89.2352 75.3925C89.3187 75.5672 89.2884 75.683 89.1458 75.7378C89.0036 75.7927 88.7984 75.8212 88.5302 75.8212H84.0377H84.0356ZM87.7703 64.3553C87.7336 64.2436 87.374 64.2558 86.6913 64.3899C86.0086 64.524 85.6591 64.6641 85.6408 64.8125C85.4925 66.0215 85.6489 66.1779 84.8382 68.0879L80.4393 77.9526C79.5899 79.8524 78.1879 82.9042 77.5053 84.3062H79.6082L82.2517 77.9526C82.335 77.7778 82.4223 77.6438 82.5138 77.5503C82.6053 77.4589 82.7373 77.3918 82.9079 77.3491C83.0787 77.3085 83.229 77.2821 83.357 77.274C83.487 77.2658 83.6842 77.2597 83.9523 77.2597H88.5281C89.0625 77.2597 89.4625 77.2984 89.725 77.3775C89.9866 77.4568 90.1839 77.6478 90.3125 77.9526L93.067 84.3062H96.4991C95.4384 82.12 94.6723 80.4782 94.2036 79.381L87.7703 64.3574V64.3553ZM73.9393 82.9692C75.382 81.7745 76.1053 80.338 76.1053 78.6597C76.1053 77.7007 75.8045 76.8575 75.2052 76.128C74.6058 75.4006 73.5594 74.5838 72.0639 73.6796L68.7438 71.6742C67.7563 71.0849 67.0655 70.5627 66.6693 70.1117C66.2731 69.6606 66.0739 69.12 66.0739 68.4922C66.0739 67.6998 66.3523 67.0577 66.9111 66.57C67.4678 66.0825 68.2968 65.8366 69.394 65.8366C70.1682 65.8366 70.8773 65.9402 71.5173 66.1475C72.1594 66.3547 72.641 66.5762 72.964 66.8118C73.287 67.0475 73.5756 67.2508 73.8295 67.4214C74.0836 67.5921 74.2766 67.6388 74.4107 67.5596C74.5448 67.4803 74.6748 67.2447 74.8049 66.8464L75.2337 65.5175C75.2885 65.3326 75.0812 65.1214 74.6119 64.8816C74.1404 64.6418 73.5228 64.4386 72.7588 64.272C71.9928 64.1054 71.2593 64.0221 70.5583 64.0221C68.7235 64.0221 67.1245 64.5727 65.7651 65.676C64.4037 66.7793 63.7251 68.1508 63.7251 69.7926C63.7251 70.7618 64.0218 71.605 64.6171 72.3243C65.2124 73.0436 66.2569 73.8564 67.7503 74.7585L70.9321 76.6807C71.6697 77.1317 72.202 77.4771 72.5292 77.7108C72.8563 77.9465 73.155 78.2634 73.4211 78.6658C73.6894 79.0681 73.8214 79.5029 73.8214 79.9723C73.8214 80.8582 73.4801 81.5693 72.7974 82.1098C72.1147 82.6502 71.1312 82.9184 69.8512 82.9184C68.9186 82.9184 68.0733 82.7986 67.3134 82.5588C66.5535 82.3191 65.9866 82.0631 65.6188 81.7908C65.249 81.5185 64.9219 81.2849 64.6374 81.0858C64.351 80.8867 64.1417 80.8277 64.0076 80.9069C63.8735 80.9862 63.7413 81.2605 63.6134 81.7299L63.337 82.8636C63.2639 83.1217 63.5199 83.4041 64.1051 83.7068C64.6903 84.0117 65.436 84.2616 66.3402 84.4607C67.2443 84.6598 68.0916 84.7573 68.8861 84.7573C70.8143 84.7573 72.4987 84.16 73.9434 82.9652" fill="white"/>
<path d="M54.9619 84.363C55.0452 84.3712 55.1041 84.2716 55.1427 84.0583L55.4738 82.5506C55.4921 82.4775 55.4698 82.4308 55.4048 82.4125C55.3397 82.3942 55.2239 82.3942 55.0594 82.4125C51.979 82.6705 49.429 82.8005 47.4094 82.8005C46.497 82.8107 46.0114 82.4551 45.9566 81.7358C45.9017 80.9251 45.8733 78.81 45.8733 77.3531V76.7252C45.8733 76.3839 45.9505 76.1502 46.1009 76.0263C46.2532 75.9024 46.491 75.8393 46.814 75.8393H47.0639C48.6143 75.8393 50.2276 75.9043 51.9059 76.0324C52.1172 76.0609 52.2553 76.0588 52.3204 76.0263C52.3854 75.9938 52.4545 75.9043 52.5277 75.756L53.0112 74.5654C53.0661 74.4374 53.0722 74.3378 53.0254 74.2687C52.9787 74.1996 52.9015 74.1752 52.7897 74.1935C51.5808 74.35 49.7603 74.4292 47.3261 74.4292H46.814C46.491 74.4292 46.2532 74.3662 46.1009 74.2423C45.9485 74.1183 45.8733 73.8847 45.8733 73.5433V70.2151C45.8733 69.1362 45.9017 68.2382 45.9566 67.0292C45.9851 66.3099 46.4687 65.9502 47.4094 65.9502C49.299 65.9502 51.6702 66.0741 54.5209 66.3241C54.7789 66.3342 54.9171 66.2834 54.9354 66.1717L55.2808 64.7332C55.3174 64.595 55.3134 64.5035 55.2666 64.4568C55.2199 64.4101 55.1325 64.3979 55.0045 64.4162C53.4827 64.5178 51.4771 64.5686 48.9861 64.5686C46.4219 64.5605 44.3473 64.5279 42.7604 64.471C42.8722 66.6289 42.927 68.5856 42.927 70.337V78.4442C42.927 80.2058 42.8722 82.1605 42.7604 84.3102C44.3473 84.2553 46.4829 84.2269 49.167 84.2269C51.4446 84.2269 53.3404 84.2736 54.8521 84.365H54.9619V84.363ZM36.9494 64.4691H33.615C33.7451 66.9783 33.808 69.571 33.808 70.973V73.6977C33.808 73.9294 33.7329 74.094 33.5805 74.1956C33.4281 74.2972 33.2778 74.3561 33.1314 74.3764C32.9831 74.3947 32.7759 74.4049 32.5097 74.4049H24.5955C24.1811 74.4049 23.86 74.3683 23.6345 74.2951C23.4089 74.222 23.2952 74.0229 23.2952 73.6998V70.975C23.2952 69.5731 23.3602 66.9804 23.4882 64.471H20.1539C20.2839 66.9804 20.347 68.935 20.347 70.337V78.4442C20.347 79.8462 20.282 81.8008 20.1539 84.3102H23.4882C23.3581 81.8008 23.2952 79.1107 23.2952 77.7087V76.6744C23.2952 76.4449 23.3724 76.2783 23.5228 76.1767C23.6752 76.075 23.8255 76.0161 23.9718 75.9958C24.1181 75.9775 24.3274 75.9674 24.5936 75.9674H32.5077C32.9221 75.9674 33.2432 76.0039 33.4687 76.0791C33.6943 76.1523 33.808 76.3514 33.808 76.6744V77.7087C33.808 79.1107 33.743 81.8008 33.615 84.3102H36.9494C36.8193 81.8008 36.7563 79.8462 36.7563 78.4442V70.337C36.7563 68.935 36.8213 66.9804 36.9494 64.471M10.3542 84.3102C10.2242 80.5289 10.1612 78.5742 10.1612 78.4442V67.086C10.1612 66.4583 10.405 66.1453 10.8947 66.1453C12.7478 66.1555 14.6577 66.2428 16.6225 66.4075C16.8907 66.4175 17.0329 66.3566 17.0512 66.2266L17.3561 64.7332C17.3926 64.595 17.3886 64.5035 17.3418 64.4568C17.2951 64.4101 17.2077 64.3979 17.0797 64.4162C15.8443 64.4527 13.6032 64.471 10.3562 64.471H7.4649C4.25455 64.471 2.03779 64.4527 0.810536 64.4162C0.599222 64.3979 0.45496 64.5035 0.381812 64.7352L0.0221721 66.1738C-0.0144014 66.2753 -0.00627398 66.3444 0.0506183 66.381C0.105479 66.4175 0.207072 66.4277 0.355398 66.4094C2.32021 66.2347 4.32161 66.1474 6.35956 66.1474C6.85737 66.1474 7.10729 66.4602 7.10729 67.0881V78.4462C7.09713 80.2079 7.0382 82.1625 6.92645 84.3123H10.3583L10.3542 84.3102Z" fill="white"/>
<path d="M0.326965 99.7929V94.4598H0.72318V99.7929H0.326965Z" fill="white"/>
<path d="M5.15087 99.7929V97.4849C5.15087 96.684 4.70183 96.1581 3.91549 96.1581C3.12916 96.1581 2.56633 96.7375 2.56633 97.5456V99.7929H2.19247V95.9063H2.56633V96.6295C2.82641 96.1724 3.2592 95.8143 3.96832 95.8143C4.95175 95.8143 5.5227 96.4849 5.5227 97.4161V99.7929H5.14884H5.15087Z" fill="white"/>
<path d="M7.97718 99.8625C7.37575 99.8625 6.8881 99.5348 6.8881 98.7955V96.25H6.32324V95.9062H6.8881V94.6652H7.26197V95.9062H8.62535V96.25H7.26197V98.7571C7.26197 99.3134 7.5891 99.5107 8.04017 99.5107C8.23117 99.5107 8.39169 99.4723 8.61113 99.375V99.7241C8.412 99.8152 8.22304 99.8625 7.97922 99.8625H7.97718Z" fill="white"/>
<path d="M11.0553 99.533C11.6568 99.533 12.0692 99.2669 12.3882 98.9232L12.6483 99.1509C12.2521 99.5776 11.7868 99.8821 11.0411 99.8821C10.0191 99.8821 9.13516 99.0678 9.13516 97.8544V97.8384C9.13516 96.7107 9.92766 95.8107 10.9802 95.8107C12.0327 95.8107 12.7641 96.6946 12.7641 97.8446V97.8607C12.7641 97.9133 12.7641 97.9384 12.756 97.9991H9.53141C9.60052 98.966 10.2934 99.5312 11.0553 99.5312V99.533ZM12.3578 97.666C12.3049 96.8812 11.8538 96.1562 10.9639 96.1562C10.1938 96.1562 9.60052 96.8044 9.53141 97.666H12.3598H12.3578Z" fill="white"/>
<path d="M15.8627 96.258C14.9626 96.258 14.1783 96.9366 14.1783 98.2V99.7929H13.8044V95.9063H14.1783V97.0116C14.483 96.3188 15.1313 95.8152 15.9013 95.8455V96.258H15.8627Z" fill="white"/>
<path d="M19.6969 99.7929V97.4849C19.6969 96.684 19.2477 96.1581 18.4615 96.1581C17.6752 96.1581 17.1123 96.7375 17.1123 97.5456V99.7929H16.7385V95.9063H17.1123V96.6295C17.3724 96.1724 17.8052 95.8143 18.5143 95.8143C19.4977 95.8143 20.0686 96.4849 20.0686 97.4161V99.7929H19.6948H19.6969Z" fill="white"/>
<path d="M23.9921 99.7929V99.1447C23.7259 99.5188 23.2444 99.8849 22.5068 99.8849C21.7692 99.8849 21.0053 99.4724 21.0053 98.6652V98.6492C21.0053 97.8402 21.6981 97.3831 22.7039 97.3831C23.2444 97.3831 23.6182 97.4527 23.9921 97.5518V97.3831C23.9921 96.5992 23.5126 96.1947 22.7121 96.1947C22.2386 96.1947 21.8505 96.325 21.4929 96.5081L21.3568 96.1804C21.7835 95.9831 22.2021 95.8456 22.7364 95.8456C23.734 95.8456 24.3598 96.3634 24.3598 97.3688V99.7929H23.9941H23.9921ZM24.0002 97.8956C23.6731 97.8125 23.2383 97.7206 22.6815 97.7206C21.8587 97.7206 21.4014 98.0867 21.4014 98.6268V98.6429C21.4014 99.2081 21.9358 99.5349 22.5291 99.5349C23.3216 99.5349 24.0002 99.0474 24.0002 98.3384V97.8974V97.8956Z" fill="white"/>
<path d="M26.8122 99.8625C26.2108 99.8625 25.7231 99.5348 25.7231 98.7955V96.25H25.1582V95.9062H25.7231V94.6652H26.097V95.9062H27.4603V96.25H26.097V98.7571C26.097 99.3134 26.4241 99.5107 26.8752 99.5107C27.0661 99.5107 27.2267 99.4723 27.4461 99.375V99.7241C27.247 99.8152 27.058 99.8625 26.8142 99.8625H26.8122Z" fill="white"/>
<path d="M28.3503 94.8919V94.3821H28.8157V94.8919H28.3503ZM28.3971 99.7928V95.9062H28.771V99.7928H28.3971Z" fill="white"/>
<path d="M31.8332 99.8849C30.6832 99.8849 29.844 98.9536 29.844 97.8652V97.8483C29.844 96.7599 30.6893 95.8143 31.8474 95.8143C33.0056 95.8143 33.8366 96.7456 33.8366 97.8349V97.8483C33.8366 98.9375 32.9913 99.8822 31.8332 99.8822V99.8849ZM33.4343 97.8509C33.4343 96.9143 32.7333 96.1661 31.8332 96.1661C30.9331 96.1661 30.2484 96.9197 30.2484 97.8349V97.8483C30.2484 98.7858 30.9494 99.5331 31.8495 99.5331C32.7496 99.5331 33.4343 98.7795 33.4343 97.8652V97.8483V97.8509Z" fill="white"/>
<path d="M37.8761 99.7929V97.4849C37.8761 96.684 37.4271 96.1581 36.6408 96.1581C35.8545 96.1581 35.2916 96.7375 35.2916 97.5456V99.7929H34.9178V95.9063H35.2916V96.6295C35.5517 96.1724 35.9845 95.8143 36.6936 95.8143C37.677 95.8143 38.248 96.4849 38.248 97.4161V99.7929H37.8741H37.8761Z" fill="white"/>
<path d="M42.1731 99.7929V99.1447C41.907 99.5188 41.4254 99.8849 40.6879 99.8849C39.9503 99.8849 39.1863 99.4724 39.1863 98.6652V98.6492C39.1863 97.8402 39.8792 97.3831 40.885 97.3831C41.4254 97.3831 41.7993 97.4527 42.1731 97.5518V97.3831C42.1731 96.5992 41.6937 96.1947 40.8931 96.1947C40.4196 96.1947 40.0316 96.325 39.6739 96.5081L39.5379 96.1804C39.9646 95.9831 40.3831 95.8456 40.9175 95.8456C41.9151 95.8456 42.5409 96.3634 42.5409 97.3688V99.7929H42.1752H42.1731ZM42.1813 97.8956C41.8542 97.8125 41.4194 97.7206 40.8626 97.7206C40.0397 97.7206 39.5825 98.0867 39.5825 98.6268V98.6429C39.5825 99.2081 40.1169 99.5349 40.7102 99.5349C41.5027 99.5349 42.1813 99.0474 42.1813 98.3384V97.8974V97.8956Z" fill="white"/>
<path d="M43.8415 99.7928V94.2303H44.2155V99.7928H43.8415Z" fill="white"/>
<path d="M52.6881 99.7929V95.1607L50.5769 98.2331H50.5465L48.4354 95.1607V99.7929H48.0534V94.4598H48.4273L50.5688 97.6152L52.7104 94.4598H53.0843V99.7929H52.6881Z" fill="white"/>
<path d="M56.2296 99.533C56.8311 99.533 57.2436 99.2669 57.5625 98.9232L57.8226 99.1509C57.4264 99.5776 56.9611 99.8821 56.2154 99.8821C55.1934 99.8821 54.3095 99.0678 54.3095 97.8544V97.8384C54.3095 96.7107 55.102 95.8107 56.1545 95.8107C57.207 95.8107 57.9384 96.6946 57.9384 97.8446V97.8607C57.9384 97.9133 57.9384 97.9384 57.9303 97.9991H54.7057C54.7748 98.966 55.4677 99.5312 56.2296 99.5312V99.533ZM57.532 97.666C57.4792 96.8812 57.0281 96.1562 56.1382 96.1562C55.3681 96.1562 54.7748 96.8044 54.7057 97.666H57.5341H57.532Z" fill="white"/>
<path d="M62.2358 99.7928V98.9232C61.9005 99.4339 61.4047 99.8848 60.6346 99.8848C59.6979 99.8848 58.745 99.1312 58.745 97.8652V97.8491C58.745 96.583 59.6979 95.8152 60.6346 95.8152C61.4128 95.8152 61.9147 96.258 62.2358 96.7455V94.2303H62.6096V99.7928H62.2358ZM62.2581 97.8428C62.2581 96.8446 61.4799 96.1741 60.6733 96.1741C59.8666 96.1741 59.1494 96.792 59.1494 97.8366V97.8509C59.1494 98.8732 59.8585 99.5268 60.6733 99.5268C61.488 99.5268 62.2581 98.8482 62.2581 97.8589V97.8428Z" fill="white"/>
<path d="M63.9103 94.8919V94.3821H64.3756V94.8919H63.9103ZM63.957 99.7928V95.9062H64.331V99.7928H63.957Z" fill="white"/>
<path d="M67.3846 99.8849C66.265 99.8849 65.4036 98.9536 65.4036 97.8652V97.8483C65.4036 96.7599 66.2731 95.8143 67.3846 95.8143C68.1161 95.8143 68.5732 96.15 68.939 96.5322L68.6728 96.8063C68.3376 96.4625 67.9555 96.1661 67.3764 96.1661C66.4926 96.1661 65.8058 96.9063 65.8058 97.8349V97.8483C65.8058 98.7858 66.515 99.5331 67.407 99.5331C67.9555 99.5331 68.3822 99.2509 68.7094 98.8849L68.9674 99.1125C68.5712 99.5617 68.0978 99.8822 67.3826 99.8822L67.3846 99.8849Z" fill="white"/>
<path d="M72.6737 99.7929V99.1447C72.4076 99.5188 71.926 99.8849 71.1884 99.8849C70.4509 99.8849 69.6869 99.4724 69.6869 98.6652V98.6492C69.6869 97.8402 70.3797 97.3831 71.3855 97.3831C71.926 97.3831 72.2999 97.4527 72.6737 97.5518V97.3831C72.6737 96.5992 72.1942 96.1947 71.3936 96.1947C70.9203 96.1947 70.5321 96.325 70.1745 96.5081L70.0384 96.1804C70.4651 95.9831 70.8836 95.8456 71.418 95.8456C72.4157 95.8456 73.0415 96.3634 73.0415 97.3688V99.7929H72.6758H72.6737ZM72.6819 97.8956C72.3547 97.8125 71.9199 97.7206 71.3632 97.7206C70.5403 97.7206 70.0831 98.0867 70.0831 98.6268V98.6429C70.0831 99.2081 70.6175 99.5349 71.2108 99.5349C72.0032 99.5349 72.6819 99.0474 72.6819 98.3384V97.8974V97.8956Z" fill="white"/>
<path d="M74.3417 99.7928V94.2303H74.7155V99.7928H74.3417Z" fill="white"/>
<path d="M82.5015 99.901L81.579 98.9483C81.0752 99.5349 80.49 99.8706 79.7727 99.8706C78.836 99.8706 78.135 99.2688 78.135 98.3849C78.135 97.6617 78.645 97.1358 79.5146 96.8143C79.1103 96.3652 78.9194 96.0367 78.9194 95.5876C78.9194 94.8947 79.4761 94.3679 80.2522 94.3679C80.9451 94.3679 81.4794 94.8867 81.4794 95.5349C81.4794 96.1822 80.9837 96.6393 80.1689 96.9224L81.5709 98.3626C81.831 97.9974 82.0585 97.5545 82.2637 97.0661L82.6214 97.2108C82.3776 97.759 82.1175 98.2385 81.8289 98.6286L82.8124 99.6429L82.4994 99.9027L82.5015 99.901ZM79.7503 97.0581C78.9051 97.3492 78.5312 97.8429 78.5312 98.3688C78.5312 99.0251 79.0494 99.5268 79.7808 99.5268C80.3761 99.5268 80.8861 99.2063 81.327 98.6876L79.7503 97.0563V97.0581ZM80.238 94.7036C79.6975 94.7036 79.3155 95.0858 79.3155 95.5733C79.3155 95.9161 79.4598 96.1742 79.9332 96.6786C80.6952 96.4349 81.0833 96.0688 81.0833 95.551C81.0833 95.0715 80.7175 94.7054 80.238 94.7054V94.7036Z" fill="white"/>
<path d="M91.4312 99.8322H91.1107L89.5482 95.1991L87.9856 99.8322H87.6646L85.7282 94.4598H86.1712L87.8475 99.2081L89.4098 94.4456H89.7152L91.2777 99.2081L92.9536 94.4598H93.3661L91.4295 99.8322H91.4312Z" fill="white"/>
<path d="M95.6598 99.533C96.2616 99.533 96.6741 99.2669 96.9929 98.9232L97.2527 99.1509C96.8571 99.5776 96.392 99.8821 95.6455 99.8821C94.6241 99.8821 93.7402 99.0678 93.7402 97.8544V97.8384C93.7402 96.7107 94.5321 95.8107 95.5848 95.8107C96.6375 95.8107 97.3687 96.6946 97.3687 97.8446V97.8607C97.3687 97.9133 97.3687 97.9384 97.3607 97.9991H94.1366C94.2054 98.966 94.8982 99.5312 95.6598 99.5312V99.533ZM96.9625 97.666C96.9098 96.8812 96.4607 96.1562 95.5687 96.1562C94.7982 96.1562 94.2054 96.8044 94.1366 97.666H96.9625Z" fill="white"/>
<path d="M98.45 99.7928V94.2303H98.8232V99.7928H98.45Z" fill="white"/>
<path d="M100.179 99.7928V94.2303H100.553V99.7928H100.179Z" fill="white"/>
<path d="M104.843 99.7929V97.4849C104.843 96.684 104.394 96.1581 103.607 96.1581C102.821 96.1581 102.258 96.7375 102.258 97.5456V99.7929H101.884V95.9063H102.258V96.6295C102.518 96.1724 102.951 95.8143 103.66 95.8143C104.644 95.8143 105.214 96.4849 105.214 97.4161V99.7929H104.84H104.843Z" fill="white"/>
<path d="M108.156 99.533C108.758 99.533 109.17 99.2669 109.489 98.9232L109.749 99.1509C109.353 99.5776 108.888 99.8821 108.142 99.8821C107.12 99.8821 106.236 99.0678 106.236 97.8544V97.8384C106.236 96.7107 107.029 95.8107 108.081 95.8107C109.134 95.8107 109.865 96.6946 109.865 97.8446V97.8607C109.865 97.9133 109.865 97.9384 109.857 97.9991H106.632C106.702 98.966 107.395 99.5312 108.156 99.5312V99.533ZM109.459 97.666C109.405 96.8812 108.957 96.1562 108.064 96.1562C107.295 96.1562 106.702 96.8044 106.632 97.666H109.459Z" fill="white"/>
<path d="M112.134 99.8705C111.57 99.8705 110.954 99.6429 110.541 99.3054L110.762 99.0089C111.189 99.3357 111.662 99.5187 112.156 99.5187C112.683 99.5187 113.093 99.2304 113.093 98.7795V98.7634C113.093 98.3062 112.605 98.1375 112.065 97.9848C111.433 97.8018 110.732 97.6107 110.732 96.9179V96.9018C110.732 96.2759 111.258 95.8268 112.012 95.8268C112.478 95.8268 113.004 95.9955 113.392 96.2536L113.193 96.567C112.835 96.3312 112.409 96.1786 111.996 96.1786C111.463 96.1786 111.112 96.4688 111.112 96.8571V96.8714C111.112 97.3063 111.638 97.467 112.196 97.625C112.821 97.8 113.475 98.0295 113.475 98.7143V98.7304C113.475 99.4232 112.882 99.8661 112.134 99.8661V99.8705Z" fill="white"/>
<path d="M115.813 99.8705C115.249 99.8705 114.633 99.6429 114.221 99.3054L114.442 99.0089C114.869 99.3357 115.342 99.5187 115.836 99.5187C116.362 99.5187 116.773 99.2304 116.773 98.7795V98.7634C116.773 98.3062 116.285 98.1375 115.745 97.9848C115.112 97.8018 114.412 97.6107 114.412 96.9179V96.9018C114.412 96.2759 114.938 95.8268 115.692 95.8268C116.157 95.8268 116.683 95.9955 117.071 96.2536L116.872 96.567C116.515 96.3312 116.088 96.1786 115.676 96.1786C115.141 96.1786 114.792 96.4688 114.792 96.8571V96.8714C114.792 97.3063 115.318 97.467 115.875 97.625C116.501 97.8 117.154 98.0295 117.154 98.7143V98.7304C117.154 99.4232 116.562 99.8661 115.813 99.8661V99.8705Z" fill="white"/>
<path d="M122.489 99.7929H120.713V94.4598H122.489C124.165 94.4598 125.323 95.6098 125.323 97.1107V97.1277C125.323 98.6286 124.165 99.7956 122.489 99.7956V99.7929ZM124.913 97.125C124.913 95.8598 123.976 94.8232 122.489 94.8232H121.109V99.425H122.489C123.974 99.425 124.913 98.4116 124.913 97.1393V97.1232V97.125Z" fill="white"/>
<path d="M128.196 99.533C128.798 99.533 129.211 99.2669 129.529 98.9232L129.789 99.1509C129.394 99.5776 128.928 99.8821 128.182 99.8821C127.161 99.8821 126.277 99.0678 126.277 97.8544V97.8384C126.277 96.7107 127.069 95.8107 128.121 95.8107C129.174 95.8107 129.905 96.6946 129.905 97.8446V97.8607C129.905 97.9133 129.905 97.9384 129.897 97.9991H126.672C126.742 98.966 127.435 99.5312 128.196 99.5312V99.533ZM129.499 97.666C129.446 96.8812 128.997 96.1562 128.105 96.1562C127.335 96.1562 126.742 96.8044 126.672 97.666H129.499Z" fill="white"/>
<path d="M132.172 99.8705C131.608 99.8705 130.992 99.6429 130.579 99.3054L130.801 99.0089C131.228 99.3357 131.701 99.5187 132.195 99.5187C132.721 99.5187 133.131 99.2304 133.131 98.7795V98.7634C133.131 98.3062 132.644 98.1375 132.104 97.9848C131.471 97.8018 130.771 97.6107 130.771 96.9179V96.9018C130.771 96.2759 131.296 95.8268 132.051 95.8268C132.516 95.8268 133.042 95.9955 133.43 96.2536L133.231 96.567C132.873 96.3312 132.446 96.1786 132.034 96.1786C131.5 96.1786 131.15 96.4688 131.15 96.8571V96.8714C131.15 97.3063 131.677 97.467 132.233 97.625C132.859 97.8 133.513 98.0295 133.513 98.7143V98.7304C133.513 99.4232 132.921 99.8661 132.172 99.8661V99.8705Z" fill="white"/>
<path d="M135.907 99.8625C135.306 99.8625 134.818 99.5348 134.818 98.7955V96.25H134.254V95.9062H134.818V94.6652H135.192V95.9062H136.555V96.25H135.192V98.7571C135.192 99.3134 135.52 99.5107 135.971 99.5107C136.162 99.5107 136.321 99.4723 136.541 99.375V99.7241C136.342 99.8152 136.154 99.8625 135.909 99.8625H135.907Z" fill="white"/>
<path d="M137.445 94.8919V94.3821H137.911V94.8919H137.445ZM137.492 99.7928V95.9062H137.866V99.7928H137.492Z" fill="white"/>
<path d="M142.162 99.7929V97.4849C142.162 96.684 141.712 96.1581 140.926 96.1581C140.139 96.1581 139.577 96.7375 139.577 97.5456V99.7929H139.203V95.9063H139.577V96.6295C139.835 96.1724 140.27 95.8143 140.979 95.8143C141.962 95.8143 142.533 96.4849 142.533 97.4161V99.7929H142.159H142.162Z" fill="white"/>
<path d="M146.459 99.7929V99.1447C146.193 99.5188 145.711 99.8849 144.973 99.8849C144.236 99.8849 143.471 99.4724 143.471 98.6652V98.6492C143.471 97.8402 144.164 97.3831 145.171 97.3831C145.711 97.3831 146.085 97.4527 146.459 97.5518V97.3831C146.459 96.5992 145.979 96.1947 145.179 96.1947C144.705 96.1947 144.317 96.325 143.96 96.5081L143.821 96.1804C144.248 95.9831 144.667 95.8456 145.201 95.8456C146.198 95.8456 146.824 96.3634 146.824 97.3688V99.7929H146.459ZM146.467 97.8956C146.139 97.8125 145.704 97.7206 145.148 97.7206C144.325 97.7206 143.868 98.0867 143.868 98.6268V98.6429C143.868 99.2081 144.4 99.5349 144.996 99.5349C145.788 99.5349 146.467 99.0474 146.467 98.3384V97.8974V97.8956Z" fill="white"/>
<path d="M149.279 99.8625C148.678 99.8625 148.189 99.5348 148.189 98.7955V96.25H147.625V95.9062H148.189V94.6652H148.563V95.9062H149.927V96.25H148.563V98.7571C148.563 99.3134 148.891 99.5107 149.342 99.5107C149.533 99.5107 149.693 99.4723 149.912 99.375V99.7241C149.713 99.8152 149.525 99.8625 149.281 99.8625H149.279Z" fill="white"/>
<path d="M150.817 94.8919V94.3821H151.282V94.8919H150.817ZM150.863 99.7928V95.9062H151.237V99.7928H150.863Z" fill="white"/>
<path d="M154.3 99.8849C153.15 99.8849 152.311 98.9536 152.311 97.8652V97.8483C152.311 96.7599 153.156 95.8143 154.314 95.8143C155.472 95.8143 156.304 96.7456 156.304 97.8349V97.8483C156.304 98.9375 155.458 99.8822 154.3 99.8822V99.8849ZM155.901 97.8509C155.901 96.9143 155.2 96.1661 154.3 96.1661C153.4 96.1661 152.715 96.9197 152.715 97.8349V97.8483C152.715 98.7858 153.416 99.5331 154.316 99.5331C155.216 99.5331 155.901 98.7795 155.901 97.8652V97.8483V97.8509Z" fill="white"/>
<path d="M160.342 99.7929V97.4849C160.342 96.684 159.893 96.1581 159.107 96.1581C158.321 96.1581 157.758 96.7375 157.758 97.5456V99.7929H157.384V95.9063H157.758V96.6295C158.018 96.1724 158.451 95.8143 159.16 95.8143C160.143 95.8143 160.714 96.4849 160.714 97.4161V99.7929H160.34H160.342Z" fill="white"/>
</g>
<defs>
<clipPath id="clip0_2_2">
<rect width="160.714" height="100" fill="white"/>
</clipPath>
</defs>
</svg>
