<svg width="12" height="10" viewBox="0 0 12 10" fill="none" xmlns="http://www.w3.org/2000/svg">
<g clip-path="url(#clip0_192_348)">
<path d="M0 8.34832V2.94456C0.0567843 2.6718 0.148979 2.4252 0.327946 2.20827C0.93439 1.47327 1.85251 1.739 2.68769 1.66978C3.2399 0.937643 3.45523 0.0909824 4.52074 0.0198424C5.46182 -0.0433222 6.47182 0.0699275 7.42057 0.0198424C8.51095 0.0868352 8.71257 0.919779 9.2769 1.67042C10.0074 1.7406 10.8407 1.51187 11.4507 2.02101C11.748 2.2692 11.9324 2.6399 11.9652 3.02622C11.8797 4.73454 12.0756 6.54877 11.9652 8.24464C11.9161 9.00134 11.3285 9.57174 10.575 9.61321L1.344 9.61161C0.683007 9.56982 0.071459 9.01474 0 8.34896L0 8.34832ZM5.88388 1.99262C3.3557 2.05578 1.89877 4.90808 3.3088 7.01293C4.63462 8.99177 7.62569 8.8731 8.79041 6.79696C10.0234 4.59896 8.38016 1.93041 5.88388 1.99294V1.99262ZM9.69162 2.88011C9.30912 2.94456 9.25744 3.53569 9.65174 3.68084C9.81699 3.74177 10.3615 3.73954 10.522 3.66425C10.8659 3.50251 10.7804 2.9184 10.4113 2.87405C10.2674 2.85683 9.83135 2.85683 9.69194 2.88011H9.69162Z" fill="#313131"/>
<path d="M5.97454 3.42146C7.37501 3.41381 8.26091 4.96644 7.50198 6.16179C6.80174 7.26429 5.17446 7.28375 4.46784 6.17997C3.70795 4.99292 4.57694 3.4288 5.97454 3.42114V3.42146Z" fill="#313131"/>
</g>
<defs>
<clipPath id="clip0_192_348">
<rect width="12" height="9.61251" fill="white"/>
</clipPath>
</defs>
</svg>
