<svg width="37" height="34" viewBox="0 0 37 34" fill="none" xmlns="http://www.w3.org/2000/svg">
<g clip-path="url(#clip0_45_2087)">
<path d="M31.5299 2.4518H28.5863V1.31253C28.5863 0.588012 27.9983 0 27.2738 0C26.5493 0 25.9613 0.588012 25.9613 1.31253V2.4518H11.0387V1.31253C11.0387 0.588012 10.4507 0 9.72619 0C9.00168 0 8.41366 0.588012 8.41366 1.31253V2.4518H5.4701C2.72955 2.4518 0.5 4.68135 0.5 7.4219V28.7513C0.5 31.4919 2.72955 33.7215 5.4701 33.7215H31.5299C34.2705 33.7215 36.5 31.4919 36.5 28.7513V7.4219C36.5 4.68135 34.2705 2.4518 31.5299 2.4518ZM33.8749 28.7513C33.8749 30.0446 32.8232 31.0964 31.5299 31.0964H5.4701C4.17683 31.0964 3.12505 30.0446 3.12505 28.7513V7.4219C3.12505 6.12863 4.17683 5.07686 5.4701 5.07686H8.41366V6.168C8.41366 6.89252 9.00168 7.48053 9.72619 7.48053C10.4507 7.48053 11.0387 6.89252 11.0387 6.168V5.07686H25.9604V6.168C25.9604 6.89252 26.5484 7.48053 27.2729 7.48053C27.9974 7.48053 28.5855 6.89252 28.5855 6.168V5.07686H31.529C32.8223 5.07686 33.8741 6.12863 33.8741 7.4219V28.7513H33.8749Z" fill="#313131"/>
<path d="M9.72629 12.2336C8.60189 12.2336 7.6875 13.148 7.6875 14.2724C7.6875 15.3968 8.60189 16.3112 9.72629 16.3112C10.8507 16.3112 11.7651 15.3968 11.7651 14.2724C11.7651 13.148 10.8507 12.2336 9.72629 12.2336Z" fill="#313131"/>
<path d="M27.2729 16.3112C28.3973 16.3112 29.3117 15.3968 29.3117 14.2724C29.3117 13.148 28.3973 12.2336 27.2729 12.2336C26.1485 12.2336 25.2341 13.148 25.2341 14.2724C25.2341 15.3968 26.1485 16.3112 27.2729 16.3112Z" fill="#313131"/>
<path d="M9.72629 21.501C8.60189 21.501 7.6875 22.4154 7.6875 23.5398C7.6875 24.6642 8.60189 25.5786 9.72629 25.5786C10.8507 25.5786 11.7651 24.6642 11.7651 23.5398C11.7651 22.4154 10.8507 21.501 9.72629 21.501Z" fill="#313131"/>
<path d="M18.5 21.501C17.3756 21.501 16.4612 22.4154 16.4612 23.5398C16.4612 24.6642 17.3756 25.5786 18.5 25.5786C19.6244 25.5786 20.5388 24.6642 20.5388 23.5398C20.5388 22.4154 19.6244 21.501 18.5 21.501Z" fill="#313131"/>
<path d="M31.2691 19.7378C30.7047 19.2828 29.8787 19.3712 29.4237 19.9356L27.0262 22.908L26.2544 22.1362C25.7416 21.6235 24.9104 21.6235 24.3985 22.1362C23.8857 22.649 23.8857 23.4803 24.3985 23.9921L26.2028 25.7964C26.4495 26.0432 26.7838 26.1806 27.1312 26.1806C27.1548 26.1806 27.1775 26.1806 27.2012 26.1788C27.5731 26.1587 27.9187 25.9819 28.1532 25.6923L31.4678 21.5832C31.9228 21.0188 31.8344 20.1928 31.27 19.7378H31.2691Z" fill="#313131"/>
<path d="M20.6202 12.9599H16.5496C15.8251 12.9599 15.2371 13.5479 15.2371 14.2724C15.2371 14.9969 15.8251 15.585 16.5496 15.585H20.6202C21.3447 15.585 21.9327 14.9969 21.9327 14.2724C21.9327 13.5479 21.3447 12.9599 20.6202 12.9599Z" fill="#313131"/>
</g>
<defs>
<clipPath id="clip0_45_2087">
<rect width="36" height="33.7215" fill="white" transform="translate(0.5)"/>
</clipPath>
</defs>
</svg>
