<svg width="36" height="36" viewBox="0 0 36 36" fill="none" xmlns="http://www.w3.org/2000/svg">
<g clip-path="url(#clip0_45_2096)">
<path d="M30.9629 3.57372H22.6647C22.091 1.51488 20.1998 0 17.9611 0C15.7224 0 13.8312 1.51488 13.2576 3.57372H4.95937C2.22473 3.57372 0 5.79845 0 8.53309V31.0406C0 33.7753 2.22473 36 4.95937 36H30.9629C33.6976 36 35.9223 33.7753 35.9223 31.0406V8.53309C35.9223 5.79845 33.6976 3.57372 30.9629 3.57372ZM17.9611 2.61939C19.2097 2.61939 20.2252 3.63484 20.2252 4.88341C20.2252 6.13199 19.2097 7.14744 17.9611 7.14744C16.7126 7.14744 15.6971 6.13199 15.6971 4.88341C15.6971 3.63484 16.7126 2.61939 17.9611 2.61939ZM33.3029 31.0406C33.3029 32.3311 32.2534 33.3806 30.9629 33.3806H4.95937C3.66889 33.3806 2.61939 32.3311 2.61939 31.0406V8.53309C2.61939 7.24261 3.66889 6.19311 4.95937 6.19311H13.2576C13.8312 8.25195 15.7224 9.76683 17.9611 9.76683C20.1998 9.76683 22.091 8.25195 22.6647 6.19311H30.9629C32.2534 6.19311 33.3029 7.24261 33.3029 8.53309V31.0406Z" fill="#313131"/>
<path d="M8.70163 11.5847C7.57966 11.5847 6.66724 12.4971 6.66724 13.619C6.66724 14.741 7.57966 15.6534 8.70163 15.6534C9.8236 15.6534 10.736 14.741 10.736 13.619C10.736 12.4971 9.8236 11.5847 8.70163 11.5847Z" fill="#313131"/>
<path d="M27.9445 12.3094H14.5114C13.7884 12.3094 13.2017 12.8961 13.2017 13.6191C13.2017 14.342 13.7884 14.9288 14.5114 14.9288H27.9445C28.6674 14.9288 29.2541 14.342 29.2541 13.6191C29.2541 12.8961 28.6674 12.3094 27.9445 12.3094Z" fill="#313131"/>
<path d="M8.70163 18.6964C7.57966 18.6964 6.66724 19.6088 6.66724 20.7307C6.66724 21.8527 7.57966 22.7651 8.70163 22.7651C9.8236 22.7651 10.736 21.8527 10.736 20.7307C10.736 19.6088 9.8236 18.6964 8.70163 18.6964Z" fill="#313131"/>
<path d="M27.9445 19.421H14.5114C13.7884 19.421 13.2017 20.0078 13.2017 20.7307C13.2017 21.4537 13.7884 22.0404 14.5114 22.0404H27.9445C28.6674 22.0404 29.2541 21.4537 29.2541 20.7307C29.2541 20.0078 28.6674 19.421 27.9445 19.421Z" fill="#313131"/>
<path d="M8.70163 25.808C7.57966 25.808 6.66724 26.7204 6.66724 27.8424C6.66724 28.9643 7.57966 29.8768 8.70163 29.8768C9.8236 29.8768 10.736 28.9643 10.736 27.8424C10.736 26.7204 9.8236 25.808 8.70163 25.808Z" fill="#313131"/>
<path d="M27.9445 26.5327H14.5114C13.7884 26.5327 13.2017 27.1194 13.2017 27.8423C13.2017 28.5653 13.7884 29.152 14.5114 29.152H27.9445C28.6674 29.152 29.2541 28.5653 29.2541 27.8423C29.2541 27.1194 28.6674 26.5327 27.9445 26.5327Z" fill="#313131"/>
</g>
<defs>
<clipPath id="clip0_45_2096">
<rect width="35.9223" height="36" fill="white"/>
</clipPath>
</defs>
</svg>
