<svg width="37" height="36" viewBox="0 0 37 36" fill="none" xmlns="http://www.w3.org/2000/svg">
<g clip-path="url(#clip0_45_2083)">
<path d="M18.5 0C8.57459 0 0.5 8.07459 0.5 18C0.5 27.9254 8.57459 36 18.5 36C28.4254 36 36.5 27.9254 36.5 18C36.5 8.07459 28.4254 0 18.5 0ZM18.5 2.70324C26.935 2.70324 33.7968 9.56588 33.7968 18C33.7968 21.2448 32.7803 24.2571 31.0503 26.7351C30.4384 25.4655 29.4707 24.285 28.1848 23.2686C26.0925 21.6124 23.3685 20.624 20.8996 20.624H16.1004C13.6306 20.624 10.9075 21.6124 8.81518 23.2686C7.53024 24.2859 6.56248 25.4655 5.94974 26.7351C4.21966 24.2571 3.20324 21.2448 3.20324 18C3.20324 9.56588 10.065 2.70324 18.5 2.70324ZM7.98348 29.0977C8.19253 28.0876 8.81338 26.718 10.493 25.3889C12.1239 24.0985 14.2199 23.3281 16.1004 23.3281H20.8996C22.7801 23.3281 24.877 24.0985 26.507 25.3889C28.1866 26.718 28.8075 28.0885 29.0165 29.0977C26.2727 31.6991 22.5693 33.2968 18.4991 33.2968C14.4289 33.2968 10.7255 31.6982 7.98168 29.0977H7.98348Z" fill="#313131"/>
<path d="M18.4999 18.6226C21.8402 18.6226 24.557 15.905 24.557 12.5656C24.557 9.22614 21.8393 6.50848 18.4999 6.50848C15.1605 6.50848 12.4429 9.22614 12.4429 12.5656C12.4429 15.905 15.1605 18.6226 18.4999 18.6226ZM18.4999 9.21083C20.349 9.21083 21.8538 10.7156 21.8538 12.5647C21.8538 14.4137 20.349 15.9185 18.4999 15.9185C16.6509 15.9185 15.1461 14.4137 15.1461 12.5647C15.1461 10.7156 16.6509 9.21083 18.4999 9.21083Z" fill="#313131"/>
</g>
<defs>
<clipPath id="clip0_45_2083">
<rect width="36" height="36" fill="white" transform="translate(0.5)"/>
</clipPath>
</defs>
</svg>
