<svg width="34" height="34" viewBox="0 0 34 34" fill="none" xmlns="http://www.w3.org/2000/svg">
<g clip-path="url(#clip0_45_1916)">
<path d="M29.317 0H21.9876C21.2327 0 20.6201 0.612613 20.6201 1.36744C20.6201 2.12227 21.2327 2.73488 21.9876 2.73488H29.317C30.3909 2.73488 31.2643 3.60822 31.2643 4.68211V12.0116C31.2643 12.7664 31.8769 13.379 32.6317 13.379C33.3865 13.379 33.9991 12.7664 33.9991 12.0116V4.68211C33.9991 2.10039 31.8988 0 29.317 0Z" fill="#313131"/>
<path d="M1.36744 13.379C2.12227 13.379 2.73488 12.7664 2.73488 12.0116V4.68211C2.73488 3.60822 3.60822 2.73488 4.68211 2.73488H12.0116C12.7664 2.73488 13.379 2.12227 13.379 1.36744C13.379 0.612613 12.7664 0 12.0116 0H4.68211C2.10039 0 0 2.10039 0 4.68211V12.0116C0 12.7664 0.612613 13.379 1.36744 13.379Z" fill="#313131"/>
<path d="M12.0116 31.2651H4.68211C3.60822 31.2651 2.73488 30.3918 2.73488 29.3179V21.9884C2.73488 21.2336 2.12227 20.621 1.36744 20.621C0.612613 20.621 0 21.2336 0 21.9884V29.3179C0 31.8996 2.10039 34 4.68211 34H12.0116C12.7664 34 13.379 33.3874 13.379 32.6326C13.379 31.8777 12.7664 31.2651 12.0116 31.2651Z" fill="#313131"/>
<path d="M32.6326 20.6201C31.8777 20.6201 31.2651 21.2327 31.2651 21.9875V29.317C31.2651 30.3909 30.3918 31.2642 29.3179 31.2642H21.9884C21.2336 31.2642 20.621 31.8768 20.621 32.6316C20.621 33.3865 21.2336 33.9991 21.9884 33.9991H29.3179C31.8996 33.9991 34 31.8987 34 29.317V21.9875C34 21.2327 33.3874 20.6201 32.6326 20.6201Z" fill="#313131"/>
<path d="M14.3563 5.32208H7.14442C6.38959 5.32208 5.77698 5.93469 5.77698 6.68952V14.3563C5.77698 15.1111 6.38959 15.7237 7.14442 15.7237H14.3563C15.1111 15.7237 15.7237 15.1111 15.7237 14.3563V6.68952C15.7237 5.93469 15.1111 5.32208 14.3563 5.32208ZM12.9889 12.9889H8.51186V8.05696H12.9889V12.9889Z" fill="#313131"/>
<path d="M19.6437 15.7237H26.8556C27.6104 15.7237 28.223 15.1111 28.223 14.3563V6.68952C28.223 5.93469 27.6104 5.32208 26.8556 5.32208H19.6437C18.8889 5.32208 18.2762 5.93469 18.2762 6.68952V14.3563C18.2762 15.1111 18.8889 15.7237 19.6437 15.7237ZM21.0111 8.05696H25.4881V12.9889H21.0111V8.05696Z" fill="#313131"/>
<path d="M14.3563 18.2762H7.14442C6.38959 18.2762 5.77698 18.8889 5.77698 19.6437V27.3105C5.77698 28.0653 6.38959 28.6779 7.14442 28.6779H14.3563C15.1111 28.6779 15.7237 28.0653 15.7237 27.3105V19.6437C15.7237 18.8889 15.1111 18.2762 14.3563 18.2762ZM12.9889 25.9421H8.51186V21.0102H12.9889V25.9421Z" fill="#313131"/>
<path d="M28.223 27.3096C28.223 26.5548 27.6104 25.9421 26.8556 25.9421H19.6437C18.8889 25.9421 18.2762 26.5548 18.2762 27.3096C18.2762 28.0644 18.8889 28.677 19.6437 28.677H26.8556C27.6104 28.677 28.223 28.0644 28.223 27.3096Z" fill="#313131"/>
<path d="M26.8555 18.2762H25.0587C24.3039 18.2762 23.6913 18.8889 23.6913 19.6437C23.6913 20.3985 24.3039 21.0111 25.0587 21.0111H26.8555C27.6104 21.0111 28.223 20.3985 28.223 19.6437C28.223 18.8889 27.6104 18.2762 26.8555 18.2762Z" fill="#313131"/>
<path d="M19.6437 24.1954C20.3985 24.1954 21.0111 23.5828 21.0111 22.828V19.6437C21.0111 18.8889 20.3985 18.2762 19.6437 18.2762C18.8889 18.2762 18.2762 18.8889 18.2762 19.6437V22.828C18.2762 23.5828 18.8889 24.1954 19.6437 24.1954Z" fill="#313131"/>
</g>
<defs>
<clipPath id="clip0_45_1916">
<rect width="34" height="34" fill="white"/>
</clipPath>
</defs>
</svg>
