<?xml version="1.0" standalone="no"?>
<!DOCTYPE svg PUBLIC "-//W3C//DTD SVG 20010904//EN"
 "http://www.w3.org/TR/2001/REC-SVG-20010904/DTD/svg10.dtd">
<svg version="1.0" xmlns="http://www.w3.org/2000/svg"
 width="512.000000pt" height="512.000000pt" viewBox="0 0 512.000000 512.000000"
 preserveAspectRatio="xMidYMid meet">

<g transform="translate(0.000000,512.000000) scale(0.100000,-0.100000)"
fill="#000000" stroke="none">
<path d="M539 4087 c-74 -49 -69 55 -69 -1360 0 -1404 -4 -1311 64 -1360 l31
-22 1980 -3 1980 -2 44 22 c28 15 51 36 63 58 17 33 18 90 16 1317 -3 1278 -3
1282 -24 1310 -11 15 -36 36 -55 45 -32 17 -149 18 -2015 18 l-1981 0 -34 -23z
m2056 -57 c15 -17 16 -24 7 -45 -20 -43 -82 -28 -82 20 0 45 44 59 75 25z
m1835 -1300 l0 -1170 -1870 0 -1870 0 0 1163 c0 640 3 1167 7 1170 3 4 845 7
1870 7 l1863 0 0 -1170z"/>
<path d="M0 1228 c0 -92 65 -185 145 -207 57 -16 4773 -16 4830 0 80 22 145
115 145 207 l0 32 -1035 0 -1035 0 0 -45 0 -45 -485 0 -485 0 0 45 0 45 -1040
0 -1040 0 0 -32z m690 -98 c0 -6 -43 -10 -110 -10 -67 0 -110 4 -110 10 0 6
43 10 110 10 67 0 110 -4 110 -10z"/>
</g>
</svg>
