<svg width="14" height="16" viewBox="0 0 14 16" fill="none" xmlns="http://www.w3.org/2000/svg">
<g clip-path="url(#clip0_48_2411)">
<path d="M6.02042 0.0177052C8.88353 -0.216341 11.4063 1.90872 11.5429 4.80446C11.6469 7.00879 9.69709 9.9367 8.42896 11.6748C8.02474 12.2287 7.51655 12.9509 7.05731 13.4441C6.63305 13.8996 6.37103 13.8735 5.95842 13.425C5.50105 12.9285 5.00638 12.2282 4.60263 11.6748C3.32796 9.92644 1.3698 6.99154 1.48869 4.76996C1.61877 2.3605 3.59278 0.216318 6.02042 0.0177052ZM6.26426 2.98338C4.67069 3.16474 3.91028 5.10705 4.9467 6.34022C5.80876 7.36639 7.44895 7.28713 8.20563 6.18123C9.20056 4.72707 8.01168 2.7843 6.26426 2.98338Z" fill="white"/>
<path d="M1.32869 13.6054C2.13247 14.4512 4.59368 14.827 5.72942 14.8759C7.28708 14.9426 10.2131 14.7603 11.4836 13.7863C12.1181 13.3001 12.0072 12.9849 11.3857 12.57C10.912 12.2534 10.4924 12.2002 10.0168 11.9844C9.47602 11.7387 9.635 10.9139 10.2364 10.899C10.5204 10.892 11.4612 11.3265 11.7396 11.4832C13.604 12.5313 13.3732 14.1272 11.5549 15.0447C8.98368 16.3422 3.68874 16.3478 1.18836 14.8806C-0.462088 13.9122 -0.354389 12.4138 1.27135 11.4962C1.55202 11.3377 2.48074 10.9069 2.7684 10.899C3.3745 10.8822 3.58057 11.7172 3.0155 11.9839C2.55021 12.2035 2.11568 12.2571 1.64713 12.57C1.22845 12.8497 0.891371 13.1457 1.32869 13.6054Z" fill="white"/>
</g>
<defs>
<clipPath id="clip0_48_2411">
<rect width="13.0325" height="16" fill="white"/>
</clipPath>
</defs>
</svg>
