<svg width="18" height="19" viewBox="0 0 18 19" fill="none" xmlns="http://www.w3.org/2000/svg">
<g clip-path="url(#clip0_252_71)">
<path d="M17.7768 8.96126L15.4641 6.64853C15.1663 6.35153 14.6843 6.35153 14.3873 6.64853C14.0895 6.94628 14.0895 7.42832 14.3873 7.72531L15.3994 8.73737H7.85576C7.4354 8.73737 7.09424 9.07853 7.09424 9.49889C7.09424 9.91924 7.4354 10.2604 7.85576 10.2604H15.3994L14.3873 11.2725C14.0895 11.5702 14.0895 12.0523 14.3873 12.3492C14.5358 12.4977 14.7307 12.5724 14.9257 12.5724C15.1206 12.5724 15.3156 12.4977 15.4641 12.3492L17.7768 10.0365C18.0746 9.73877 18.0746 9.25672 17.7768 8.95973V8.96126Z" fill="white"/>
<path d="M11.7982 13.0087C11.3778 13.0087 11.0367 13.3499 11.0367 13.7702V16.0776C11.0367 16.5734 10.6331 16.9777 10.1366 16.9777H2.48635C1.99061 16.9777 1.587 16.5741 1.587 16.0776V2.92239C1.587 2.42664 1.99061 2.02304 2.48635 2.02304H10.1366C10.6323 2.02304 11.0367 2.42664 11.0367 2.92239V5.22979C11.0367 5.65015 11.3778 5.99131 11.7982 5.99131C12.2186 5.99131 12.5597 5.65015 12.5597 5.22979V2.92239C12.5597 1.58669 11.473 0.5 10.1366 0.5H2.48635C1.15065 0.5 0.0639648 1.58669 0.0639648 2.92239V16.0769C0.0639648 17.4126 1.15065 18.5 2.48635 18.5H10.1366C11.4723 18.5 12.5597 17.4133 12.5597 16.0769V13.7695C12.5597 13.3491 12.2186 13.0079 11.7982 13.0079V13.0087Z" fill="white"/>
</g>
<defs>
<clipPath id="clip0_252_71">
<rect width="17.936" height="18" fill="white" transform="translate(0.0639648 0.5)"/>
</clipPath>
</defs>
</svg>
